<?xml version="1.0" encoding="UTF-8"?>
<svg id="Layer_3" data-name="Layer 3" xmlns="http://www.w3.org/2000/svg" xmlns:xlink="http://www.w3.org/1999/xlink" viewBox="0 0 500 130">
  <defs>
    <style>
      .cls-1 {
        fill: url(#radial-gradient-7);
      }

      .cls-2 {
        fill: url(#radial-gradient-6);
      }

      .cls-3 {
        fill: url(#radial-gradient-5);
      }

      .cls-4 {
        fill: url(#radial-gradient-4);
      }

      .cls-5 {
        fill: url(#radial-gradient-3);
      }

      .cls-6 {
        fill: url(#radial-gradient-2);
      }

      .cls-7 {
        fill: #00b18d;
      }

      .cls-8 {
        fill: url(#radial-gradient);
      }

      .cls-9 {
        fill: #14202b;
      }

      .cls-10 {
        opacity: .61;
      }

      .cls-11 {
        fill: #3178f1;
      }

      .cls-12 {
        fill: #3178f1;
      }
    </style>
    <radialGradient id="radial-gradient" cx="109.57" cy="-12.37" fx="109.57" fy="-12.37" r="149.83" gradientUnits="userSpaceOnUse">
      <stop offset="0" stop-color="#5ceec6"/>
      <stop offset="1" stop-color="#00b18d"/>
    </radialGradient>
    <radialGradient id="radial-gradient-2" cx="8.9" cy="-17.37" fx="8.9" fy="-17.37" r="161.53" gradientUnits="userSpaceOnUse">
      <stop offset="0" stop-color="#6ecdff"/>
      <stop offset="1" stop-color="#3178f1"/>
    </radialGradient>
    <radialGradient id="radial-gradient-3" cx="8.9" cy="-17.37" fx="8.9" fy="-17.37" r="161.53" xlink:href="#radial-gradient-2"/>
    <radialGradient id="radial-gradient-4" cx="63.87" cy="10.82" fx="63.87" fy="10.82" r="106.07" gradientUnits="userSpaceOnUse">
      <stop offset="0" stop-color="#5ceec6"/>
      <stop offset="1" stop-color="#3178f1"/>
    </radialGradient>
    <radialGradient id="radial-gradient-5" cx="63.87" cy="10.82" fx="63.87" fy="10.82" r="106.07" xlink:href="#radial-gradient-4"/>
    <radialGradient id="radial-gradient-6" cx="63.87" cy="10.82" fx="63.87" fy="10.82" r="106.07" xlink:href="#radial-gradient-4"/>
    <radialGradient id="radial-gradient-7" cx="63.87" cy="10.82" fx="63.87" fy="10.82" r="106.07" xlink:href="#radial-gradient-4"/>
  </defs>
  <g>
    <path class="cls-9" d="M189.08,40.44c-.9-.72-2.02-1.31-3.35-1.78,1.22-.7,2.2-1.45,2.93-2.27,2.03-2.26,3.06-5.17,3.06-8.65,0-4.77-1.71-8.45-5.08-10.94-2.78-2.04-6.68-3.07-11.59-3.07h-14.88v51.07h14.84c3.41,0,6.09-.21,7.94-.63,3.26-.72,5.85-2.27,7.68-4.59,1.93-2.42,2.91-5.44,2.91-8.96,0-4.4-1.51-7.82-4.48-10.17ZM181,33.97c-1.46,1.17-3.95,1.76-7.39,1.76h-5.25v-14.93h4.1c2.34,0,4.1.08,5.21.24,1.82.28,3.21.91,4.14,1.9,1.26,1.3,1.88,2.97,1.88,5.09,0,2.6-.87,4.54-2.68,5.94ZM168.35,42.76h6.69c3.5,0,6.04.51,7.57,1.52,1.85,1.23,2.75,3.18,2.75,5.96,0,3.73-1.72,6.04-5.23,7.05-1.2.33-3.42.5-6.6.5h-5.18v-15.04Z"/>
    <path class="cls-9" d="M229.68,43.74c0,3.38-.21,5.78-.64,7.14-.7,2.25-2.1,4-4.28,5.34-3.44,2.11-7.21,2.39-11.08.66-2.26-1.01-3.8-2.47-4.71-4.47-.8-1.7-1.2-4.56-1.2-8.49V13.73h-8.18v30.05c0,4.26.32,7.4.98,9.6,1.14,3.79,3.51,6.86,7.03,9.14,3.26,2.11,7.06,3.18,11.29,3.18,3.5,0,6.73-.76,9.59-2.27,3.49-1.82,6.09-4.53,7.71-8.05,1.25-2.7,1.85-6.49,1.85-11.6V13.73h-8.36v30.01Z"/>
    <polygon class="cls-9" points="243.68 21.01 256.16 21.01 256.16 64.8 264.34 64.8 264.34 21.01 276.85 21.01 276.85 13.73 243.68 13.73 243.68 21.01"/>
    <polygon class="cls-9" points="282.03 21.01 294.5 21.01 294.5 64.8 302.68 64.8 302.68 21.01 315.19 21.01 315.19 13.73 282.03 13.73 282.03 21.01"/>
    <path class="cls-9" d="M320.19,19.73v39.07c0,3.31,2.69,6,6,6h21.56v-7.28h-19.38v-14.83h19.38v-7.28h-19.38v-14.39h19.38v-7.28h-21.56c-3.31,0-6,2.69-6,6Z"/>
    <path class="cls-9" d="M376.28,43.92c.22-.08.47-.16.86-.25,3.26-.81,5.95-2.45,8-4.85,2.23-2.64,3.36-5.93,3.36-9.78,0-4.05-1.24-7.47-3.67-10.16-3.08-3.42-7.81-5.15-14.04-5.15h-14.45v51.07h8.18v-20.63h.49l15.05,20.63h10.44l-15.28-20.59c.46-.09.74-.18,1.05-.29ZM364.52,21.05h6.19c3.27,0,5.7.73,7.22,2.17,1.54,1.47,2.28,3.5,2.28,6.22,0,2.96-.94,5.11-2.87,6.57-1.75,1.32-4.31,1.99-7.6,1.99h-5.22v-16.95Z"/>
    <path class="cls-9" d="M395.3,19.73v45.07h8.18v-22.11h19.16v-7.28h-19.16v-14.39h19.16v-7.28h-21.34c-3.31,0-6,2.69-6,6Z"/>
    <path class="cls-9" d="M438.8,13.73h-8.18v45.07c0,3.31,2.69,6,6,6h19.51v-7.61h-17.33V13.73Z"/>
    <polygon class="cls-9" points="487.2 13.73 475.28 33.81 463.2 13.73 453.47 13.73 471.23 42.48 471.23 64.8 479.42 64.8 479.42 42.48 496.88 13.73 487.2 13.73"/>
  </g>
  <g>
    <path class="cls-9" d="M176.36,85.36c2.17,0,4.2.6,6.02,1.78.87.57,1.92,1.5,3.14,2.76l.17.18,3.29-3.11-.16-.18c-1.42-1.57-2.76-2.76-4-3.54-2.53-1.57-5.4-2.36-8.54-2.36s-5.86.74-8.29,2.21c-2.51,1.53-4.49,3.7-5.88,6.44-1.46,2.87-2.2,6.01-2.2,9.33,0,2.11.32,4.19.95,6.19.8,2.55,2,4.76,3.58,6.56,2.99,3.39,6.96,5.1,11.79,5.1,2.95,0,5.65-.67,8.03-1.98,1.48-.83,2.98-2.13,4.46-3.88l.15-.17-3.19-3.26-.18.22c-1.05,1.29-2.07,2.26-3.05,2.89-1.77,1.13-3.75,1.71-5.88,1.71s-4.08-.56-5.88-1.66c-1.81-1.09-3.21-2.53-4.15-4.27-1.19-2.23-1.79-4.75-1.79-7.47,0-3.69.99-6.8,2.93-9.26,2.22-2.8,5.14-4.22,8.68-4.22Z"/>
    <polygon class="cls-9" points="224.45 96.85 208.54 96.85 208.54 81.52 203.8 81.52 203.8 116.1 208.54 116.1 208.54 101.02 224.45 101.02 224.45 116.1 229.19 116.1 229.19 81.52 224.45 81.52 224.45 96.85"/>
    <path class="cls-9" d="M258.65,81.52c-1.59,0-3.04,1.01-3.6,2.52l-11.94,32.06h4.94l3.03-7.89h14.76l2.81,7.89h5.24l-11.63-32.03c-.55-1.53-2.01-2.55-3.61-2.55ZM264.38,104.01h-11.8l5.97-16.1,5.83,16.1Z"/>
    <path class="cls-9" d="M292.56,81.52h-4.74v31.85c0,1.51,1.21,2.73,2.7,2.73h14.93v-4.39h-12.9v-30.19Z"/>
    <path class="cls-9" d="M324.22,81.52h-4.74v31.85c0,1.51,1.21,2.73,2.7,2.73h14.93v-4.39h-12.9v-30.19Z"/>
    <path class="cls-9" d="M350.74,84.25v29.12c0,1.51,1.21,2.73,2.7,2.73h15.32v-4.17h-13.28v-11.18h13.28v-4.17h-13.28v-10.89h13.28v-4.17h-15.32c-1.49,0-2.7,1.23-2.7,2.73Z"/>
    <path class="cls-9" d="M406.95,106.64l-16.78-23.97c-.5-.72-1.33-1.15-2.2-1.15h-.15c-1.49,0-2.7,1.23-2.7,2.73v31.85h4.74v-25.49l16.92,24.33c.5.73,1.33,1.16,2.21,1.16,1.49,0,2.7-1.23,2.7-2.73v-31.85h-4.74v25.12Z"/>
    <path class="cls-9" d="M460.86,97.15h-16.54v4.17h11.66c-.09.92-.21,1.65-.34,2.17-.59,2.54-1.9,4.62-3.88,6.18-2.23,1.75-4.69,2.64-7.31,2.64-2.17,0-4.24-.62-6.12-1.86-1.76-1.14-3.13-2.63-4.08-4.45-1.16-2.18-1.75-4.6-1.75-7.17,0-2.04.38-4.01,1.12-5.85.87-2.18,2.23-3.96,4.06-5.31,2.03-1.54,4.34-2.32,6.87-2.32,2.4,0,4.58.7,6.48,2.08.75.54,1.69,1.44,2.77,2.68l.16.18,3.56-2.91-.15-.19c-1.16-1.48-2.49-2.71-3.95-3.65-2.69-1.75-5.67-2.64-8.86-2.64-3.58,0-6.77.93-9.48,2.77-2.54,1.75-4.48,4.16-5.76,7.15-1.09,2.53-1.65,5.25-1.65,8.09,0,3.5.77,6.66,2.3,9.38,1.41,2.52,3.37,4.56,5.83,6.06,2.62,1.58,5.56,2.38,8.73,2.38s6.14-.84,8.66-2.49c2.55-1.65,4.57-3.91,6-6.74,1.13-2.24,1.7-4.98,1.7-8.15,0-.63,0-1.29-.03-1.95v-.24Z"/>
    <path class="cls-9" d="M494.35,85.69v-4.17h-15.32c-1.49,0-2.7,1.23-2.7,2.73v29.12c0,1.51,1.21,2.73,2.7,2.73h15.32v-4.17h-13.28v-11.18h13.28v-4.17h-13.28v-10.89h13.28Z"/>
  </g>
  <g>
    <g>
      <path class="cls-7" d="M113.35,55.24c8.75-7.77,15.15-13.52,23.26-21.88.92-.94,1.24-2.39.82-3.68-.38-1.16-1.23-2.02-2.34-2.34-1.12-.32-2.26-.04-3.12.78-8.2,7.84-14.66,13.06-23.44,20.3,0,0-1.17.72-1.86-.26s.49-1.68.49-1.68c10.84-9.5,19.17-17.17,29.03-27.57.94-.99,1.26-2.45.85-3.83-.38-1.26-1.3-2.21-2.45-2.55-1.13-.34-2.28-.04-3.14.81-9.84,9.64-18.11,16.54-28.84,25.29,0,0-1.26.62-1.81-.3-.55-.92.45-1.67.45-1.67,9.09-8.06,15.79-14.14,24.16-22.85.85-.89,1.16-2.28.79-3.54-.34-1.14-1.16-2.01-2.19-2.33-.98-.31-1.99-.07-2.77.64-9.43,8.74-16.77,13.54-26.97,21.46-8.02,5.86-22.11,14.36-22.58,9.45h0c.17-16.14-6.21-26.97-12.5-25.74-2.96.58-.97,4.04.11,8.07,2.18,8.12.57,15.36.41,25.88-.11,7.19,1.75,21.12-8.57,26.59-15.38,8.16-25.46,16.82-24.15,30.39,2.11,21.94,30.41,24.43,37.63.8,3.71-12.14,6.56-16.99,15.51-22.69,10.13-6.45,27.76-7.68,39.56-19.48,6.35-6.25,9.58-9.34,15.56-15.89.69-.76.92-1.84.61-2.82-.28-.88-.92-1.54-1.76-1.83-.88-.31-2.2.06-2.9.69-6.01,5.48-10.13,8.49-16.45,13.68,0,0-1.17.71-1.79-.14-.62-.85.4-1.76.4-1.76Z"/>
      <path class="cls-8" d="M113.35,55.24c8.75-7.77,15.15-13.52,23.26-21.88.92-.94,1.24-2.39.82-3.68-.38-1.16-1.23-2.02-2.34-2.34-1.12-.32-2.26-.04-3.12.78-8.2,7.84-14.66,13.06-23.44,20.3,0,0-1.17.72-1.86-.26s.49-1.68.49-1.68c10.84-9.5,19.17-17.17,29.03-27.57.94-.99,1.26-2.45.85-3.83-.38-1.26-1.3-2.21-2.45-2.55-1.13-.34-2.28-.04-3.14.81-9.84,9.64-18.11,16.54-28.84,25.29,0,0-1.26.62-1.81-.3-.55-.92.45-1.67.45-1.67,9.09-8.06,15.79-14.14,24.16-22.85.85-.89,1.16-2.28.79-3.54-.34-1.14-1.16-2.01-2.19-2.33-.98-.31-1.99-.07-2.77.64-9.43,8.74-16.77,13.54-26.97,21.46-8.02,5.86-22.11,14.36-22.58,9.45h0c.17-16.14-6.21-26.97-12.5-25.74-2.96.58-.97,4.04.11,8.07,2.18,8.12.57,15.36.41,25.88-.11,7.19,1.75,21.12-8.57,26.59-15.38,8.16-25.46,16.82-24.15,30.39,2.11,21.94,27.39,23.87,34.61.24,3.71-12.14,6.88-19.21,15.91-24.78,14.91-9.21,30.38-5.03,42.17-16.83,6.35-6.25,9.58-9.34,15.56-15.89.69-.76.92-1.84.61-2.82-.28-.88-.92-1.54-1.76-1.83-.88-.31-2.2.06-2.9.69-6.01,5.48-10.13,8.49-16.45,13.68,0,0-1.17.71-1.79-.14-.62-.85.4-1.76.4-1.76Z"/>
      <path class="cls-11" d="M74.47,38.04c1.37-.31,3.48-1.23,5.96-2.54-.24-4.77-.22-9.08,1.01-13.67,1.08-4.03,3.07-7.49.11-8.07-3.62-.71-7.26,2.58-9.68,8.58,1.6,4.42,2.52,9.81,2.6,15.7Z"/>
      <path class="cls-12" d="M45.88,69.78c9.35-3.44,11.1-11.48,10.99-20.37,0-.61.49-11.74.52-12.3-3.79-2.13-7.81-4.8-10.92-7.07-10.2-7.92-17.53-12.72-26.97-21.46-.77-.72-1.78-.95-2.77-.64-1.03.32-1.84,1.19-2.19,2.33-.37,1.26-.06,2.65.79,3.54,8.37,8.71,15.07,14.79,24.16,22.85,0,0,1,.75.45,1.67-.55.92-1.81.3-1.81.3-10.73-8.75-19.01-15.65-28.84-25.29-.86-.85-2.01-1.14-3.14-.81-1.16.34-2.07,1.3-2.45,2.55-.41,1.37-.09,2.84.85,3.83,9.85,10.41,18.19,18.07,29.03,27.57,0,0,1.18.7.49,1.68s-1.86.26-1.86.26c-8.78-7.24-15.24-12.46-23.44-20.3-.86-.82-2-1.11-3.12-.78-1.11.32-1.97,1.18-2.34,2.34-.41,1.29-.09,2.73.82,3.68,8.11,8.36,14.51,14.11,23.26,21.88,0,0,1.02.91.4,1.76-.62.85-1.79.14-1.79.14-6.32-5.19-10.43-8.19-16.45-13.68-.7-.63-2.02-1-2.9-.69-.84.29-1.48.96-1.76,1.83-.31.98-.08,2.06.61,2.82,5.98,6.56,9.21,9.64,15.56,15.89,5.01,5.01,15.47,9.91,24.82,6.47Z"/>
      <path class="cls-6" d="M44.87,66.27c9.35-3.44,11.97-14,12.53-29.16-3.79-2.13-7.81-4.8-10.92-7.07-10.2-7.92-17.53-12.72-26.97-21.46-.77-.72-1.78-.95-2.77-.64-1.03.32-1.84,1.19-2.19,2.33-.37,1.26-.06,2.65.79,3.54,8.37,8.71,15.07,14.79,24.16,22.85,0,0,1,.75.45,1.67-.55.92-1.81.3-1.81.3-10.73-8.75-19.01-15.65-28.84-25.29-.86-.85-2.01-1.14-3.14-.81-1.16.34-2.07,1.3-2.45,2.55-.41,1.37-.09,2.84.85,3.83,9.85,10.41,18.19,18.07,29.03,27.57,0,0,1.18.7.49,1.68s-1.86.26-1.86.26c-8.78-7.24-15.24-12.46-23.44-20.3-.86-.82-2-1.11-3.12-.78-1.11.32-1.97,1.18-2.34,2.34-.41,1.29-.09,2.73.82,3.68,8.11,8.36,14.51,14.11,23.26,21.88,0,0,1.02.91.4,1.76-.62.85-1.79.14-1.79.14-6.32-5.19-10.43-8.19-16.45-13.68-.7-.63-2.02-1-2.9-.69-.84.29-1.48.96-1.76,1.83-.31.98-.08,2.06.61,2.82,5.98,6.56,9.21,9.64,15.56,15.89,5.01,5.01,14.46,6.4,23.8,2.96Z"/>
      <path class="cls-12" d="M78.32,90.07c-4.03,6.12-1.59,15.09-1.49,15.41,7.22,23.63,34.82,21.14,36.93-.8.89-9.21-7.91-19.21-20.28-24.54-6.99,1.85-12,5.15-15.15,9.93Z"/>
      <path class="cls-5" d="M82.23,107.01c1.98,14.17,18.7,19.5,27.23,8.88,2.28-2.83,3.85-6.59,4.3-11.21.89-9.21-7.91-19.21-20.28-24.54-8.81,3.74-13.23,12.7-11.24,26.87Z"/>
    </g>
    <g class="cls-10">
      <path class="cls-4" d="M113.35,55.24c8.75-7.77,15.15-13.52,23.26-21.88.92-.94,1.24-2.39.82-3.68-.38-1.16-1.23-2.02-2.34-2.34-1.12-.32-2.26-.04-3.12.78-8.2,7.84-14.66,13.06-23.44,20.3,0,0-1.17.72-1.86-.26s.49-1.68.49-1.68c10.84-9.5,19.17-17.17,29.03-27.57.94-.99,1.26-2.45.85-3.83-.38-1.26-1.3-2.21-2.45-2.55-1.13-.34-2.28-.04-3.14.81-9.84,9.64-18.11,16.54-28.84,25.29,0,0-1.26.62-1.81-.3-.55-.92.45-1.67.45-1.67,9.09-8.06,15.79-14.14,24.16-22.85.85-.89,1.16-2.28.79-3.54-.34-1.14-1.16-2.01-2.19-2.33-.98-.31-1.99-.07-2.77.64-9.43,8.74-16.77,13.54-26.97,21.46-8.02,5.86-22.11,14.36-22.58,9.45h0c.17-16.14-6.21-26.97-12.5-25.74-2.96.58-.97,4.04.11,8.07,2.18,8.12.57,15.36.41,25.88-.11,7.19,1.75,21.12-8.57,26.59-15.38,8.16-25.46,16.82-24.15,30.39.98,10.21,6.98,16.08,13.84,17.07,8.99,2.05,19.72-2.97,23.78-16.27,3.71-12.14,6.56-16.99,15.51-22.69,10.13-6.45,27.76-7.68,39.56-19.48,6.35-6.25,9.58-9.34,15.56-15.89.69-.76.92-1.84.61-2.82-.28-.88-.92-1.54-1.76-1.83-.88-.31-2.2.06-2.9.69-6.01,5.48-10.13,8.49-16.45,13.68,0,0-1.17.71-1.79-.14-.62-.85.4-1.76.4-1.76Z"/>
      <path class="cls-3" d="M80.43,35.5c-.24-4.77-.22-9.08,1.01-13.67,1.08-4.03,3.07-7.49.11-8.07-3.62-.71-7.26,2.58-9.68,8.58,1.6,4.42,2.52,9.81,2.6,15.7,1.37-.31,3.48-1.23,5.96-2.54Z"/>
      <path class="cls-2" d="M45.88,69.78c9.35-3.44,11.1-11.48,10.99-20.37,0-.44.25-6.23.4-9.71.05-.85.09-1.7.12-2.58-3.79-2.13-7.81-4.8-10.92-7.07-10.2-7.92-17.53-12.72-26.97-21.46-.77-.72-1.78-.95-2.77-.64-1.03.32-1.84,1.19-2.19,2.33-.37,1.26-.06,2.65.79,3.54,8.37,8.71,15.07,14.79,24.16,22.85,0,0,1,.75.45,1.67-.55.92-1.81.3-1.81.3-10.73-8.75-19.01-15.65-28.84-25.29-.86-.85-2.01-1.14-3.14-.81-1.16.34-2.07,1.3-2.45,2.55-.41,1.37-.09,2.84.85,3.83,9.85,10.41,18.19,18.07,29.03,27.57,0,0,1.18.7.49,1.68s-1.86.26-1.86.26c-8.78-7.24-15.24-12.46-23.44-20.3-.86-.82-2-1.11-3.12-.78-1.11.32-1.97,1.18-2.34,2.34-.41,1.29-.09,2.73.82,3.68,8.11,8.36,14.51,14.11,23.26,21.88,0,0,1.02.91.4,1.76-.62.85-1.79.14-1.79.14-6.32-5.19-10.43-8.19-16.45-13.68-.7-.63-2.02-1-2.9-.69-.84.29-1.48.96-1.76,1.83-.31.98-.08,2.06.61,2.82,5.98,6.56,9.21,9.64,15.56,15.89,5.01,5.01,15.47,9.91,24.82,6.47Z"/>
      <path class="cls-1" d="M93.48,80.14c-6.99,1.85-12,5.15-15.15,9.93-4.03,6.12-1.59,15.09-1.49,15.41,5.68,18.59,23.98,21.01,32.55,10.51.03-.03.06-.06.08-.1.05-.06.09-.12.14-.18.06-.08.12-.15.18-.23.1-.13.2-.27.3-.4.05-.07.1-.14.15-.22.12-.17.23-.34.35-.52.03-.04.05-.08.08-.12.14-.22.27-.44.4-.67.04-.06.07-.13.11-.19.09-.17.18-.33.27-.5.04-.09.09-.17.13-.26.08-.15.15-.31.23-.47.04-.09.09-.19.13-.28.07-.16.14-.32.21-.49.04-.09.08-.19.12-.28.07-.19.15-.37.21-.57.03-.07.06-.15.08-.22.09-.26.18-.53.27-.81.02-.06.03-.11.05-.17.07-.22.13-.44.19-.67.03-.1.05-.2.08-.3.05-.19.09-.38.14-.57.02-.11.05-.22.07-.33.04-.19.08-.38.11-.57.02-.11.04-.22.06-.34.04-.21.07-.41.1-.62.01-.1.03-.2.04-.3.04-.31.08-.62.11-.94.89-9.21-7.91-19.21-20.28-24.54Z"/>
    </g>
  </g>
</svg>