<?xml version="1.0" encoding="utf-8"?>
<svg xmlns="http://www.w3.org/2000/svg" viewBox="0 0 50 50" fill="#000000"><path d="M 20 2 C 15.598372 2 12 5.5983724 12 10 C 12 13.705514 14.953629 17.365487 17.810547 20.308594 C 20.666942 23.251162 23.543814 25.409398 23.804688 25.603516 C 24.157492 25.866624 24.580476 26 25 26 C 25.419524 26 25.83949 25.86788 26.191406 25.607422 A 1.0001 1.0001 0 0 0 26.195312 25.603516 C 26.446515 25.416058 29.33255 23.251814 32.189453 20.308594 C 35.046357 17.365373 38 13.705514 38 10 C 38 5.597513 34.401455 2 30 2 C 27.714033 2 26.117643 3.0305466 25 3.9824219 C 23.882357 3.0305466 22.285967 2 20 2 z M 20 4 C 21.998373 4 23.464086 5.0873185 24.292969 5.9179688 A 1.0001 1.0001 0 0 0 25.707031 5.9179688 C 26.535914 5.0873185 28.001627 4 30 4 C 33.316545 4 36 6.682487 36 10 C 36 12.537486 33.484206 16.105236 30.755859 18.916016 C 28.028492 21.725786 25.215592 23.839106 25 24 C 24.794961 23.847433 21.972473 21.726658 19.244141 18.916016 C 16.515808 16.105373 14 12.537486 14 10 C 14 6.6836276 16.683628 4 20 4 z M 5.4394531 7.1132812 C 3.4956263 7.2887656 2 8.9309817 2 10.869141 L 2 11 L 2 31.255859 C 2 32.960228 2.7248286 34.585314 3.9941406 35.722656 L 11.337891 42.304688 C 12.396984 43.254536 13 44.607777 13 46.029297 L 13 47 A 1.0001 1.0001 0 1 0 15 47 L 15 46.029297 C 15 44.040817 14.152781 42.144558 12.671875 40.816406 L 5.3300781 34.234375 A 1.0001 1.0001 0 0 0 5.3300781 34.232422 C 4.4833902 33.473811 4 32.393491 4 31.255859 L 4 11 L 4 10.869141 C 4 9.9479245 4.6819925 9.1908401 5.6171875 9.1054688 C 6.5966401 9.0227785 7.4394087 9.7365196 7.5351562 10.726562 L 8.5527344 21.242188 A 1.0001 1.0001 0 0 0 8.5605469 21.3125 C 8.5233389 21.344871 8.4815869 21.368409 8.4453125 21.402344 C 6.8378424 22.907209 6.7087138 25.442936 8.1582031 27.101562 L 14.734375 34.626953 A 1.0001 1.0001 0 1 0 16.240234 33.310547 L 9.6640625 25.785156 C 8.9095518 24.921782 8.974017 23.646416 9.8105469 22.863281 C 10.627425 22.099083 11.871956 22.097921 12.689453 22.861328 L 21.779297 31.359375 C 23.195257 32.682618 24 34.53313 24 36.472656 L 24 47 A 1.0001 1.0001 0 0 0 24.916016 48.009766 A 1.0001 1.0001 0 0 0 25.015625 48.013672 A 1.0001 1.0001 0 0 0 26 47 L 26 36.472656 C 26 34.534255 26.804904 32.682421 28.220703 31.359375 L 37.310547 22.861328 C 38.128179 22.097064 39.37244 22.098226 40.189453 22.863281 C 41.025771 23.646217 41.089821 24.923184 40.335938 25.785156 L 33.759766 33.310547 A 1.0001 1.0001 0 1 0 35.265625 34.626953 L 41.841797 27.101562 L 41.839844 27.101562 C 43.290007 25.443488 43.162369 22.907408 41.554688 21.402344 C 41.518712 21.368658 41.476347 21.346595 41.439453 21.314453 A 1.0001 1.0001 0 0 0 41.447266 21.242188 L 42.464844 10.726562 C 42.560524 9.7372009 43.40227 9.0239291 44.380859 9.1054688 C 44.380859 9.1054688 44.382812 9.1054688 44.382812 9.1054688 C 45.31796 9.1908401 46 9.9479245 46 10.869141 L 46 11 L 46 31.255859 C 46 32.393491 45.51635 33.47595 44.669922 34.234375 L 37.328125 40.818359 C 35.84759 42.145626 35 44.041354 35 46.029297 L 35 47 A 1.0001 1.0001 0 1 0 37 47 L 37 46.029297 C 37 44.607777 37.603387 43.255322 38.662109 42.306641 L 46.005859 35.722656 C 47.274687 34.585132 48 32.95969 48 31.255859 L 48 11 L 48 10.869141 C 48 8.9309817 46.504374 7.2887656 44.560547 7.1132812 A 1.0001 1.0001 0 0 0 44.554688 7.1132812 C 42.495002 6.937124 40.672796 8.4839279 40.474609 10.533203 L 39.523438 20.373047 C 39.268064 20.324534 39.009179 20.298954 38.75 20.298828 C 37.74033 20.298337 36.731496 20.665523 35.945312 21.400391 L 26.853516 29.898438 C 26.086921 30.61481 25.469037 31.455878 25 32.371094 C 24.530952 31.455983 23.913011 30.614746 23.146484 29.898438 L 14.054688 21.400391 C 13.268435 20.666118 12.259473 20.298338 11.25 20.298828 C 10.990871 20.298954 10.731921 20.324486 10.476562 20.373047 L 9.5253906 10.533203 C 9.3272041 8.4839279 7.5049971 6.9371241 5.4453125 7.1132812 A 1.0001 1.0001 0 0 0 5.4394531 7.1132812 z" fill="#000000"/></svg>
