<svg width="517" height="166" viewBox="0 0 517 166" fill="none" xmlns="http://www.w3.org/2000/svg">
<g clip-path="url(#clip0_245_565)">
<path d="M135 28H489.432C504.094 28 515.969 39.9061 515.932 54.5683C515.894 69.1771 504.041 81 489.432 81H27.5682C12.9061 81 1.03062 92.906 1.06834 107.568C1.10591 122.177 12.9593 134 27.5682 134H419.336" stroke="black" stroke-width="1.5"/>
<g filter="url(#filter0_d_245_565)">
<rect x="1" y="2" width="183" height="52" rx="26" fill="white" shape-rendering="crispEdges"/>
<path d="M53.2559 35V20.9082H56.1465L60.3848 31.748H60.5508L64.7793 20.9082H67.6699V35H65.4043V24.9805H65.2285L61.3223 35H59.6035L55.6973 24.9805H55.5312V35H53.2559ZM74.502 35.2148C71.2988 35.2148 69.3652 33.125 69.3652 29.668V29.6484C69.3652 26.2207 71.3281 24.1211 74.502 24.1211C77.6855 24.1211 79.6387 26.2109 79.6387 29.6484V29.668C79.6387 33.125 77.6953 35.2148 74.502 35.2148ZM74.502 33.2422C76.1914 33.2422 77.1484 31.9238 77.1484 29.6777V29.6582C77.1484 27.4121 76.1816 26.084 74.502 26.084C72.8125 26.084 71.8457 27.4121 71.8457 29.6582V29.6777C71.8457 31.9238 72.8125 33.2422 74.502 33.2422ZM81.0801 35V24.3262H83.5117V25.957H83.6777C84.1855 24.8145 85.2109 24.1211 86.7539 24.1211C89.1367 24.1211 90.4355 25.5566 90.4355 28.0957V35H88.0039V28.6621C88.0039 27.002 87.3301 26.1621 85.8555 26.1621C84.4102 26.1621 83.5117 27.1777 83.5117 28.7793V35H81.0801ZM96.877 35.2148C93.7031 35.2148 91.7793 33.0859 91.7793 29.6875V29.6777C91.7793 26.3184 93.7227 24.1211 96.7598 24.1211C99.7969 24.1211 101.672 26.25 101.672 29.4727V30.2734H94.2109C94.2402 32.1875 95.2754 33.3008 96.9258 33.3008C98.2441 33.3008 98.9961 32.6367 99.2305 32.1484L99.2598 32.0801H101.574L101.545 32.168C101.203 33.5449 99.7773 35.2148 96.877 35.2148ZM96.7891 26.0254C95.4316 26.0254 94.416 26.9434 94.2305 28.6426H99.2988C99.1328 26.8945 98.1465 26.0254 96.7891 26.0254ZM103.992 38.75C103.699 38.75 103.357 38.7402 103.064 38.7109V36.8457C103.26 36.8652 103.533 36.875 103.787 36.875C104.783 36.875 105.379 36.4648 105.643 35.498L105.77 35.0098L101.951 24.3262H104.607L107.098 32.666H107.283L109.764 24.3262H112.322L108.494 35.2246C107.576 37.9004 106.355 38.75 103.992 38.75ZM117.998 35V20.9082H120.518V35H117.998ZM122.74 35V24.3262H125.172V25.957H125.338C125.846 24.8145 126.871 24.1211 128.414 24.1211C130.797 24.1211 132.096 25.5566 132.096 28.0957V35H129.664V28.6621C129.664 27.002 128.99 26.1621 127.516 26.1621C126.07 26.1621 125.172 27.1777 125.172 28.7793V35H122.74Z" fill="black"/>
</g>
<g filter="url(#filter1_d_245_565)">
<rect x="65" y="108" width="183" height="52" rx="26" fill="white" shape-rendering="crispEdges"/>
<path d="M114.229 141V126.908H119.854C122.715 126.908 124.648 128.793 124.648 131.615V131.635C124.648 134.447 122.715 136.342 119.854 136.342H116.748V141H114.229ZM119.238 128.969H116.748V134.311H119.238C121.045 134.311 122.1 133.334 122.1 131.645V131.625C122.1 129.936 121.045 128.969 119.238 128.969ZM126.178 141V130.326H128.609V131.967H128.775C129.137 130.824 130.113 130.15 131.52 130.15C131.891 130.15 132.271 130.199 132.506 130.268V132.445C132.115 132.367 131.715 132.309 131.295 132.309C129.674 132.309 128.609 133.275 128.609 134.799V141H126.178ZM137.834 141.215C134.631 141.215 132.697 139.125 132.697 135.668V135.648C132.697 132.221 134.66 130.121 137.834 130.121C141.018 130.121 142.971 132.211 142.971 135.648V135.668C142.971 139.125 141.027 141.215 137.834 141.215ZM137.834 139.242C139.523 139.242 140.48 137.924 140.48 135.678V135.658C140.48 133.412 139.514 132.084 137.834 132.084C136.145 132.084 135.178 133.412 135.178 135.658V135.678C135.178 137.924 136.145 139.242 137.834 139.242ZM149.002 144.75C146.189 144.75 144.5 143.549 144.256 141.752L144.266 141.723H146.697L146.707 141.752C146.873 142.436 147.684 142.914 149.041 142.914C150.701 142.914 151.668 142.143 151.668 140.775V138.734H151.502C150.887 139.877 149.725 140.502 148.25 140.502C145.545 140.502 143.865 138.412 143.865 135.385V135.365C143.865 132.279 145.545 130.15 148.299 130.15C149.773 130.15 150.926 130.873 151.531 132.084H151.658V130.326H154.09V140.736C154.09 143.197 152.117 144.75 149.002 144.75ZM149.002 138.568C150.691 138.568 151.707 137.27 151.707 135.385V135.365C151.707 133.48 150.682 132.172 149.002 132.172C147.312 132.172 146.355 133.48 146.355 135.365V135.385C146.355 137.27 147.312 138.568 149.002 138.568ZM156.068 141V130.326H158.5V131.967H158.666C159.027 130.824 160.004 130.15 161.41 130.15C161.781 130.15 162.162 130.199 162.396 130.268V132.445C162.006 132.367 161.605 132.309 161.186 132.309C159.564 132.309 158.5 133.275 158.5 134.799V141H156.068ZM166.162 141.176C164.131 141.176 162.656 139.926 162.656 137.982V137.963C162.656 136.059 164.111 134.945 166.709 134.789L169.453 134.623V133.705C169.453 132.641 168.76 132.055 167.451 132.055C166.338 132.055 165.615 132.455 165.371 133.158L165.361 133.197H163.066L163.076 133.109C163.311 131.312 165.029 130.121 167.568 130.121C170.312 130.121 171.855 131.449 171.855 133.705V141H169.453V139.535H169.287C168.701 140.57 167.568 141.176 166.162 141.176ZM165.059 137.865C165.059 138.773 165.83 139.311 166.904 139.311C168.369 139.311 169.453 138.354 169.453 137.084V136.225L167.051 136.381C165.693 136.469 165.059 136.967 165.059 137.846V137.865ZM173.775 141V130.326H176.207V131.986H176.373C176.832 130.795 177.906 130.121 179.303 130.121C180.748 130.121 181.803 130.863 182.262 132.045H182.428C182.945 130.883 184.176 130.121 185.66 130.121C187.809 130.121 189.098 131.439 189.098 133.656V141H186.666V134.252C186.666 132.865 186.031 132.162 184.732 132.162C183.463 132.162 182.643 133.109 182.643 134.33V141H180.211V134.076C180.211 132.895 179.479 132.162 178.287 132.162C177.086 132.162 176.207 133.178 176.207 134.506V141H173.775ZM195.012 141.215C192.297 141.215 190.656 139.965 190.451 138.158V138.139H192.863L192.873 138.158C193.127 138.9 193.84 139.418 195.051 139.418C196.262 139.418 197.102 138.871 197.102 138.07V138.051C197.102 137.426 196.633 137.016 195.461 136.752L193.732 136.361C191.701 135.912 190.734 134.955 190.734 133.383V133.373C190.734 131.449 192.492 130.121 195.012 130.121C197.609 130.121 199.162 131.41 199.318 133.139V133.158H197.033L197.023 133.129C196.848 132.455 196.145 131.908 195.002 131.908C193.918 131.908 193.137 132.436 193.137 133.236V133.246C193.137 133.871 193.586 134.252 194.738 134.516L196.467 134.896C198.557 135.365 199.543 136.254 199.543 137.807V137.826C199.543 139.857 197.639 141.215 195.012 141.215Z" fill="black"/>
</g>
<g filter="url(#filter2_d_245_565)">
<rect x="269.09" y="2" width="183" height="52" rx="26" fill="white" shape-rendering="crispEdges"/>
<path d="M313.086 35V20.9082H315.977L320.215 31.748H320.381L324.61 20.9082H327.5V35H325.235V24.9805H325.059L321.153 35H319.434L315.528 24.9805H315.362V35H313.086ZM334.333 35.2148C331.129 35.2148 329.196 33.125 329.196 29.668V29.6484C329.196 26.2207 331.159 24.1211 334.333 24.1211C337.516 24.1211 339.469 26.2109 339.469 29.6484V29.668C339.469 33.125 337.526 35.2148 334.333 35.2148ZM334.333 33.2422C336.022 33.2422 336.979 31.9238 336.979 29.6777V29.6582C336.979 27.4121 336.012 26.084 334.333 26.084C332.643 26.084 331.676 27.4121 331.676 29.6582V29.6777C331.676 31.9238 332.643 33.2422 334.333 33.2422ZM340.911 35V24.3262H343.342V25.957H343.508C344.016 24.8145 345.042 24.1211 346.584 24.1211C348.967 24.1211 350.266 25.5566 350.266 28.0957V35H347.834V28.6621C347.834 27.002 347.161 26.1621 345.686 26.1621C344.241 26.1621 343.342 27.1777 343.342 28.7793V35H340.911ZM356.708 35.2148C353.534 35.2148 351.61 33.0859 351.61 29.6875V29.6777C351.61 26.3184 353.553 24.1211 356.59 24.1211C359.627 24.1211 361.502 26.25 361.502 29.4727V30.2734H354.042C354.071 32.1875 355.106 33.3008 356.756 33.3008C358.075 33.3008 358.827 32.6367 359.061 32.1484L359.09 32.0801H361.405L361.375 32.168C361.034 33.5449 359.608 35.2148 356.708 35.2148ZM356.62 26.0254C355.262 26.0254 354.247 26.9434 354.061 28.6426H359.129C358.963 26.8945 357.977 26.0254 356.62 26.0254ZM363.823 38.75C363.53 38.75 363.188 38.7402 362.895 38.7109V36.8457C363.09 36.8652 363.364 36.875 363.618 36.875C364.614 36.875 365.209 36.4648 365.473 35.498L365.6 35.0098L361.782 24.3262H364.438L366.928 32.666H367.114L369.594 24.3262H372.153L368.325 35.2246C367.407 37.9004 366.186 38.75 363.823 38.75ZM383.903 35.3516C379.772 35.3516 377.233 32.4902 377.233 27.959V27.9395C377.233 23.3984 379.811 20.5566 383.903 20.5566C388.004 20.5566 390.563 23.3984 390.563 27.9395V27.959C390.563 32.4902 388.014 35.3516 383.903 35.3516ZM383.903 33.1738C386.413 33.1738 387.995 31.123 387.995 27.959V27.9395C387.995 24.7559 386.403 22.7344 383.903 22.7344C381.403 22.7344 379.801 24.7559 379.801 27.9395V27.959C379.801 31.123 381.364 33.1738 383.903 33.1738ZM395.735 35.2148C393.333 35.2148 392.102 33.7695 392.102 31.2305V24.3262H394.534V30.6738C394.534 32.3242 395.149 33.1641 396.614 33.1641C398.186 33.1641 399.026 32.1484 399.026 30.5469V24.3262H401.458V35H399.026V33.3789H398.86C398.362 34.5215 397.278 35.2148 395.735 35.2148ZM407.625 35.0488C405.174 35.0488 404.168 34.2285 404.168 32.168V26.2109H402.508V24.3262H404.168V21.709H406.639V24.3262H408.895V26.2109H406.639V31.5918C406.639 32.6562 407.059 33.1055 408.075 33.1055C408.417 33.1055 408.602 33.0957 408.895 33.0664V34.9414C408.543 35.0098 408.094 35.0488 407.625 35.0488Z" fill="black"/>
</g>
<g filter="url(#filter3_d_245_565)">
<rect x="333.09" y="108" width="183" height="52" rx="26" fill="white" shape-rendering="crispEdges"/>
<path d="M385.708 141.352C381.577 141.352 379.038 138.49 379.038 133.959V133.939C379.038 129.398 381.616 126.557 385.708 126.557C389.809 126.557 392.368 129.398 392.368 133.939V133.959C392.368 138.49 389.819 141.352 385.708 141.352ZM385.708 139.174C388.217 139.174 389.799 137.123 389.799 133.959V133.939C389.799 130.756 388.208 128.734 385.708 128.734C383.208 128.734 381.606 130.756 381.606 133.939V133.959C381.606 137.123 383.168 139.174 385.708 139.174ZM397.54 141.215C395.137 141.215 393.907 139.77 393.907 137.23V130.326H396.338V136.674C396.338 138.324 396.954 139.164 398.418 139.164C399.991 139.164 400.831 138.148 400.831 136.547V130.326H403.262V141H400.831V139.379H400.665C400.167 140.521 399.083 141.215 397.54 141.215ZM409.43 141.049C406.979 141.049 405.973 140.229 405.973 138.168V132.211H404.313V130.326H405.973V127.709H408.444V130.326H410.7V132.211H408.444V137.592C408.444 138.656 408.864 139.105 409.879 139.105C410.221 139.105 410.407 139.096 410.7 139.066V140.941C410.348 141.01 409.899 141.049 409.43 141.049ZM416.604 141.215C413.391 141.215 411.497 139.135 411.497 135.648V135.629C411.497 132.182 413.381 130.121 416.594 130.121C419.338 130.121 420.979 131.645 421.252 133.852V133.891H418.958L418.948 133.861C418.723 132.826 417.932 132.084 416.604 132.084C414.944 132.084 413.967 133.393 413.967 135.629V135.648C413.967 137.914 414.954 139.242 416.604 139.242C417.864 139.242 418.635 138.666 418.938 137.543L418.958 137.504L421.252 137.494L421.233 137.572C420.881 139.76 419.309 141.215 416.604 141.215ZM427.176 141.215C423.973 141.215 422.04 139.125 422.04 135.668V135.648C422.04 132.221 424.002 130.121 427.176 130.121C430.36 130.121 432.313 132.211 432.313 135.648V135.668C432.313 139.125 430.37 141.215 427.176 141.215ZM427.176 139.242C428.866 139.242 429.823 137.924 429.823 135.678V135.658C429.823 133.412 428.856 132.084 427.176 132.084C425.487 132.084 424.52 133.412 424.52 135.658V135.678C424.52 137.924 425.487 139.242 427.176 139.242ZM433.754 141V130.326H436.186V131.986H436.352C436.811 130.795 437.885 130.121 439.282 130.121C440.727 130.121 441.782 130.863 442.241 132.045H442.407C442.924 130.883 444.155 130.121 445.639 130.121C447.788 130.121 449.077 131.439 449.077 133.656V141H446.645V134.252C446.645 132.865 446.01 132.162 444.711 132.162C443.442 132.162 442.622 133.109 442.622 134.33V141H440.19V134.076C440.19 132.895 439.458 132.162 438.266 132.162C437.065 132.162 436.186 133.178 436.186 134.506V141H433.754ZM455.528 141.215C452.354 141.215 450.43 139.086 450.43 135.688V135.678C450.43 132.318 452.374 130.121 455.411 130.121C458.448 130.121 460.323 132.25 460.323 135.473V136.273H452.862C452.891 138.188 453.926 139.301 455.577 139.301C456.895 139.301 457.647 138.637 457.881 138.148L457.911 138.08H460.225L460.196 138.168C459.854 139.545 458.428 141.215 455.528 141.215ZM455.44 132.025C454.083 132.025 453.067 132.943 452.881 134.643H457.95C457.784 132.895 456.797 132.025 455.44 132.025ZM465.788 141.215C463.073 141.215 461.432 139.965 461.227 138.158V138.139H463.639L463.649 138.158C463.903 138.9 464.616 139.418 465.827 139.418C467.038 139.418 467.877 138.871 467.877 138.07V138.051C467.877 137.426 467.409 137.016 466.237 136.752L464.508 136.361C462.477 135.912 461.51 134.955 461.51 133.383V133.373C461.51 131.449 463.268 130.121 465.788 130.121C468.385 130.121 469.938 131.41 470.094 133.139V133.158H467.809L467.799 133.129C467.624 132.455 466.92 131.908 465.778 131.908C464.694 131.908 463.913 132.436 463.913 133.236V133.246C463.913 133.871 464.362 134.252 465.514 134.516L467.243 134.896C469.333 135.365 470.319 136.254 470.319 137.807V137.826C470.319 139.857 468.415 141.215 465.788 141.215Z" fill="black"/>
</g>
<path d="M262 21L269 28L262 35" stroke="black" stroke-width="1.5"/>
<path d="M326.09 127L333.09 134L326.09 141" stroke="black" stroke-width="1.5"/>
<path d="M58 127L65 134L58 141" stroke="black" stroke-width="1.5"/>
</g>
<defs>
<filter id="filter0_d_245_565" x="-3.6" y="-1.6" width="192.2" height="61.2" filterUnits="userSpaceOnUse" color-interpolation-filters="sRGB">
<feFlood flood-opacity="0" result="BackgroundImageFix"/>
<feColorMatrix in="SourceAlpha" type="matrix" values="0 0 0 0 0 0 0 0 0 0 0 0 0 0 0 0 0 0 127 0" result="hardAlpha"/>
<feOffset dy="1"/>
<feGaussianBlur stdDeviation="2.3"/>
<feComposite in2="hardAlpha" operator="out"/>
<feColorMatrix type="matrix" values="0 0 0 0 0 0 0 0 0 0 0 0 0 0 0 0 0 0 0.08 0"/>
<feBlend mode="normal" in2="BackgroundImageFix" result="effect1_dropShadow_245_565"/>
<feBlend mode="normal" in="SourceGraphic" in2="effect1_dropShadow_245_565" result="shape"/>
</filter>
<filter id="filter1_d_245_565" x="60.4" y="104.4" width="192.2" height="61.2" filterUnits="userSpaceOnUse" color-interpolation-filters="sRGB">
<feFlood flood-opacity="0" result="BackgroundImageFix"/>
<feColorMatrix in="SourceAlpha" type="matrix" values="0 0 0 0 0 0 0 0 0 0 0 0 0 0 0 0 0 0 127 0" result="hardAlpha"/>
<feOffset dy="1"/>
<feGaussianBlur stdDeviation="2.3"/>
<feComposite in2="hardAlpha" operator="out"/>
<feColorMatrix type="matrix" values="0 0 0 0 0 0 0 0 0 0 0 0 0 0 0 0 0 0 0.08 0"/>
<feBlend mode="normal" in2="BackgroundImageFix" result="effect1_dropShadow_245_565"/>
<feBlend mode="normal" in="SourceGraphic" in2="effect1_dropShadow_245_565" result="shape"/>
</filter>
<filter id="filter2_d_245_565" x="264.49" y="-1.6" width="192.2" height="61.2" filterUnits="userSpaceOnUse" color-interpolation-filters="sRGB">
<feFlood flood-opacity="0" result="BackgroundImageFix"/>
<feColorMatrix in="SourceAlpha" type="matrix" values="0 0 0 0 0 0 0 0 0 0 0 0 0 0 0 0 0 0 127 0" result="hardAlpha"/>
<feOffset dy="1"/>
<feGaussianBlur stdDeviation="2.3"/>
<feComposite in2="hardAlpha" operator="out"/>
<feColorMatrix type="matrix" values="0 0 0 0 0 0 0 0 0 0 0 0 0 0 0 0 0 0 0.08 0"/>
<feBlend mode="normal" in2="BackgroundImageFix" result="effect1_dropShadow_245_565"/>
<feBlend mode="normal" in="SourceGraphic" in2="effect1_dropShadow_245_565" result="shape"/>
</filter>
<filter id="filter3_d_245_565" x="328.49" y="104.4" width="192.2" height="61.2" filterUnits="userSpaceOnUse" color-interpolation-filters="sRGB">
<feFlood flood-opacity="0" result="BackgroundImageFix"/>
<feColorMatrix in="SourceAlpha" type="matrix" values="0 0 0 0 0 0 0 0 0 0 0 0 0 0 0 0 0 0 127 0" result="hardAlpha"/>
<feOffset dy="1"/>
<feGaussianBlur stdDeviation="2.3"/>
<feComposite in2="hardAlpha" operator="out"/>
<feColorMatrix type="matrix" values="0 0 0 0 0 0 0 0 0 0 0 0 0 0 0 0 0 0 0.08 0"/>
<feBlend mode="normal" in2="BackgroundImageFix" result="effect1_dropShadow_245_565"/>
<feBlend mode="normal" in="SourceGraphic" in2="effect1_dropShadow_245_565" result="shape"/>
</filter>
<clipPath id="clip0_245_565">
<rect width="517" height="166" fill="white"/>
</clipPath>
</defs>
</svg>
