<svg width="517" height="164" viewBox="0 0 517 164" fill="none" xmlns="http://www.w3.org/2000/svg">
<g clip-path="url(#clip0_245_565)">
<path d="M186.325 26H489.432C504.094 26 515.969 37.9061 515.932 52.5683C515.894 67.1771 504.041 79 489.432 79H27.5682C12.9061 79 1.03062 90.906 1.06834 105.568C1.10591 120.177 12.9593 132 27.5682 132H419.336" stroke="black" stroke-width="1.5"/>
<g filter="url(#filter0_d_245_565)">
<rect x="45" y="1" width="183" height="52" rx="26" fill="white" shape-rendering="crispEdges"/>
<path d="M97.2559 34V19.9082H100.146L104.385 30.748H104.551L108.779 19.9082H111.67V34H109.404V23.9805H109.229L105.322 34H103.604L99.6973 23.9805H99.5312V34H97.2559ZM118.502 34.2148C115.299 34.2148 113.365 32.125 113.365 28.668V28.6484C113.365 25.2207 115.328 23.1211 118.502 23.1211C121.686 23.1211 123.639 25.2109 123.639 28.6484V28.668C123.639 32.125 121.695 34.2148 118.502 34.2148ZM118.502 32.2422C120.191 32.2422 121.148 30.9238 121.148 28.6777V28.6582C121.148 26.4121 120.182 25.084 118.502 25.084C116.812 25.084 115.846 26.4121 115.846 28.6582V28.6777C115.846 30.9238 116.812 32.2422 118.502 32.2422ZM125.08 34V23.3262H127.512V24.957H127.678C128.186 23.8145 129.211 23.1211 130.754 23.1211C133.137 23.1211 134.436 24.5566 134.436 27.0957V34H132.004V27.6621C132.004 26.002 131.33 25.1621 129.855 25.1621C128.41 25.1621 127.512 26.1777 127.512 27.7793V34H125.08ZM140.877 34.2148C137.703 34.2148 135.779 32.0859 135.779 28.6875V28.6777C135.779 25.3184 137.723 23.1211 140.76 23.1211C143.797 23.1211 145.672 25.25 145.672 28.4727V29.2734H138.211C138.24 31.1875 139.275 32.3008 140.926 32.3008C142.244 32.3008 142.996 31.6367 143.23 31.1484L143.26 31.0801H145.574L145.545 31.168C145.203 32.5449 143.777 34.2148 140.877 34.2148ZM140.789 25.0254C139.432 25.0254 138.416 25.9434 138.23 27.6426H143.299C143.133 25.8945 142.146 25.0254 140.789 25.0254ZM147.992 37.75C147.699 37.75 147.357 37.7402 147.064 37.7109V35.8457C147.26 35.8652 147.533 35.875 147.787 35.875C148.783 35.875 149.379 35.4648 149.643 34.498L149.77 34.0098L145.951 23.3262H148.607L151.098 31.666H151.283L153.764 23.3262H156.322L152.494 34.2246C151.576 36.9004 150.355 37.75 147.992 37.75ZM161.998 34V19.9082H164.518V34H161.998ZM166.74 34V23.3262H169.172V24.957H169.338C169.846 23.8145 170.871 23.1211 172.414 23.1211C174.797 23.1211 176.096 24.5566 176.096 27.0957V34H173.664V27.6621C173.664 26.002 172.99 25.1621 171.516 25.1621C170.07 25.1621 169.172 26.1777 169.172 27.7793V34H166.74Z" fill="black"/>
</g>
<g filter="url(#filter1_d_245_565)">
<rect x="45" y="106" width="183" height="52" rx="26" fill="white" shape-rendering="crispEdges"/>
<path d="M94.2285 139V124.908H99.8535C102.715 124.908 104.648 126.793 104.648 129.615V129.635C104.648 132.447 102.715 134.342 99.8535 134.342H96.748V139H94.2285ZM99.2383 126.969H96.748V132.311H99.2383C101.045 132.311 102.1 131.334 102.1 129.645V129.625C102.1 127.936 101.045 126.969 99.2383 126.969ZM106.178 139V128.326H108.609V129.967H108.775C109.137 128.824 110.113 128.15 111.52 128.15C111.891 128.15 112.271 128.199 112.506 128.268V130.445C112.115 130.367 111.715 130.309 111.295 130.309C109.674 130.309 108.609 131.275 108.609 132.799V139H106.178ZM117.834 139.215C114.631 139.215 112.697 137.125 112.697 133.668V133.648C112.697 130.221 114.66 128.121 117.834 128.121C121.018 128.121 122.971 130.211 122.971 133.648V133.668C122.971 137.125 121.027 139.215 117.834 139.215ZM117.834 137.242C119.523 137.242 120.48 135.924 120.48 133.678V133.658C120.48 131.412 119.514 130.084 117.834 130.084C116.145 130.084 115.178 131.412 115.178 133.658V133.678C115.178 135.924 116.145 137.242 117.834 137.242ZM129.002 142.75C126.189 142.75 124.5 141.549 124.256 139.752L124.266 139.723H126.697L126.707 139.752C126.873 140.436 127.684 140.914 129.041 140.914C130.701 140.914 131.668 140.143 131.668 138.775V136.734H131.502C130.887 137.877 129.725 138.502 128.25 138.502C125.545 138.502 123.865 136.412 123.865 133.385V133.365C123.865 130.279 125.545 128.15 128.299 128.15C129.773 128.15 130.926 128.873 131.531 130.084H131.658V128.326H134.09V138.736C134.09 141.197 132.117 142.75 129.002 142.75ZM129.002 136.568C130.691 136.568 131.707 135.27 131.707 133.385V133.365C131.707 131.48 130.682 130.172 129.002 130.172C127.312 130.172 126.355 131.48 126.355 133.365V133.385C126.355 135.27 127.312 136.568 129.002 136.568ZM136.068 139V128.326H138.5V129.967H138.666C139.027 128.824 140.004 128.15 141.41 128.15C141.781 128.15 142.162 128.199 142.396 128.268V130.445C142.006 130.367 141.605 130.309 141.186 130.309C139.564 130.309 138.5 131.275 138.5 132.799V139H136.068ZM146.162 139.176C144.131 139.176 142.656 137.926 142.656 135.982V135.963C142.656 134.059 144.111 132.945 146.709 132.789L149.453 132.623V131.705C149.453 130.641 148.76 130.055 147.451 130.055C146.338 130.055 145.615 130.455 145.371 131.158L145.361 131.197H143.066L143.076 131.109C143.311 129.312 145.029 128.121 147.568 128.121C150.312 128.121 151.855 129.449 151.855 131.705V139H149.453V137.535H149.287C148.701 138.57 147.568 139.176 146.162 139.176ZM145.059 135.865C145.059 136.773 145.83 137.311 146.904 137.311C148.369 137.311 149.453 136.354 149.453 135.084V134.225L147.051 134.381C145.693 134.469 145.059 134.967 145.059 135.846V135.865ZM153.775 139V128.326H156.207V129.986H156.373C156.832 128.795 157.906 128.121 159.303 128.121C160.748 128.121 161.803 128.863 162.262 130.045H162.428C162.945 128.883 164.176 128.121 165.66 128.121C167.809 128.121 169.098 129.439 169.098 131.656V139H166.666V132.252C166.666 130.865 166.031 130.162 164.732 130.162C163.463 130.162 162.643 131.109 162.643 132.33V139H160.211V132.076C160.211 130.895 159.479 130.162 158.287 130.162C157.086 130.162 156.207 131.178 156.207 132.506V139H153.775ZM175.012 139.215C172.297 139.215 170.656 137.965 170.451 136.158V136.139H172.863L172.873 136.158C173.127 136.9 173.84 137.418 175.051 137.418C176.262 137.418 177.102 136.871 177.102 136.07V136.051C177.102 135.426 176.633 135.016 175.461 134.752L173.732 134.361C171.701 133.912 170.734 132.955 170.734 131.383V131.373C170.734 129.449 172.492 128.121 175.012 128.121C177.609 128.121 179.162 129.41 179.318 131.139V131.158H177.033L177.023 131.129C176.848 130.455 176.145 129.908 175.002 129.908C173.918 129.908 173.137 130.436 173.137 131.236V131.246C173.137 131.871 173.586 132.252 174.738 132.516L176.467 132.896C178.557 133.365 179.543 134.254 179.543 135.807V135.826C179.543 137.857 177.639 139.215 175.012 139.215Z" fill="black"/>
</g>
<g filter="url(#filter2_d_245_565)">
<rect x="293.09" y="1" width="183" height="52" rx="26" fill="white" shape-rendering="crispEdges"/>
<path d="M337.086 34V19.9082H339.977L344.215 30.748H344.381L348.61 19.9082H351.5V34H349.235V23.9805H349.059L345.153 34H343.434L339.528 23.9805H339.362V34H337.086ZM358.333 34.2148C355.129 34.2148 353.196 32.125 353.196 28.668V28.6484C353.196 25.2207 355.159 23.1211 358.333 23.1211C361.516 23.1211 363.469 25.2109 363.469 28.6484V28.668C363.469 32.125 361.526 34.2148 358.333 34.2148ZM358.333 32.2422C360.022 32.2422 360.979 30.9238 360.979 28.6777V28.6582C360.979 26.4121 360.012 25.084 358.333 25.084C356.643 25.084 355.676 26.4121 355.676 28.6582V28.6777C355.676 30.9238 356.643 32.2422 358.333 32.2422ZM364.911 34V23.3262H367.342V24.957H367.508C368.016 23.8145 369.042 23.1211 370.584 23.1211C372.967 23.1211 374.266 24.5566 374.266 27.0957V34H371.834V27.6621C371.834 26.002 371.161 25.1621 369.686 25.1621C368.241 25.1621 367.342 26.1777 367.342 27.7793V34H364.911ZM380.708 34.2148C377.534 34.2148 375.61 32.0859 375.61 28.6875V28.6777C375.61 25.3184 377.553 23.1211 380.59 23.1211C383.627 23.1211 385.502 25.25 385.502 28.4727V29.2734H378.042C378.071 31.1875 379.106 32.3008 380.756 32.3008C382.075 32.3008 382.827 31.6367 383.061 31.1484L383.09 31.0801H385.405L385.375 31.168C385.034 32.5449 383.608 34.2148 380.708 34.2148ZM380.62 25.0254C379.262 25.0254 378.247 25.9434 378.061 27.6426H383.129C382.963 25.8945 381.977 25.0254 380.62 25.0254ZM387.823 37.75C387.53 37.75 387.188 37.7402 386.895 37.7109V35.8457C387.09 35.8652 387.364 35.875 387.618 35.875C388.614 35.875 389.209 35.4648 389.473 34.498L389.6 34.0098L385.782 23.3262H388.438L390.928 31.666H391.114L393.594 23.3262H396.153L392.325 34.2246C391.407 36.9004 390.186 37.75 387.823 37.75ZM407.903 34.3516C403.772 34.3516 401.233 31.4902 401.233 26.959V26.9395C401.233 22.3984 403.811 19.5566 407.903 19.5566C412.004 19.5566 414.563 22.3984 414.563 26.9395V26.959C414.563 31.4902 412.014 34.3516 407.903 34.3516ZM407.903 32.1738C410.413 32.1738 411.995 30.123 411.995 26.959V26.9395C411.995 23.7559 410.403 21.7344 407.903 21.7344C405.403 21.7344 403.801 23.7559 403.801 26.9395V26.959C403.801 30.123 405.364 32.1738 407.903 32.1738ZM419.735 34.2148C417.333 34.2148 416.102 32.7695 416.102 30.2305V23.3262H418.534V29.6738C418.534 31.3242 419.149 32.1641 420.614 32.1641C422.186 32.1641 423.026 31.1484 423.026 29.5469V23.3262H425.458V34H423.026V32.3789H422.86C422.362 33.5215 421.278 34.2148 419.735 34.2148ZM431.625 34.0488C429.174 34.0488 428.168 33.2285 428.168 31.168V25.2109H426.508V23.3262H428.168V20.709H430.639V23.3262H432.895V25.2109H430.639V30.5918C430.639 31.6562 431.059 32.1055 432.075 32.1055C432.417 32.1055 432.602 32.0957 432.895 32.0664V33.9414C432.543 34.0098 432.094 34.0488 431.625 34.0488Z" fill="black"/>
</g>
<g filter="url(#filter3_d_245_565)">
<rect x="293.09" y="106" width="183" height="52" rx="26" fill="white" shape-rendering="crispEdges"/>
<path d="M345.708 139.352C341.577 139.352 339.038 136.49 339.038 131.959V131.939C339.038 127.398 341.616 124.557 345.708 124.557C349.809 124.557 352.368 127.398 352.368 131.939V131.959C352.368 136.49 349.819 139.352 345.708 139.352ZM345.708 137.174C348.217 137.174 349.799 135.123 349.799 131.959V131.939C349.799 128.756 348.208 126.734 345.708 126.734C343.208 126.734 341.606 128.756 341.606 131.939V131.959C341.606 135.123 343.168 137.174 345.708 137.174ZM357.54 139.215C355.137 139.215 353.907 137.77 353.907 135.23V128.326H356.338V134.674C356.338 136.324 356.954 137.164 358.418 137.164C359.991 137.164 360.831 136.148 360.831 134.547V128.326H363.262V139H360.831V137.379H360.665C360.167 138.521 359.083 139.215 357.54 139.215ZM369.43 139.049C366.979 139.049 365.973 138.229 365.973 136.168V130.211H364.313V128.326H365.973V125.709H368.444V128.326H370.7V130.211H368.444V135.592C368.444 136.656 368.864 137.105 369.879 137.105C370.221 137.105 370.407 137.096 370.7 137.066V138.941C370.348 139.01 369.899 139.049 369.43 139.049ZM376.604 139.215C373.391 139.215 371.497 137.135 371.497 133.648V133.629C371.497 130.182 373.381 128.121 376.594 128.121C379.338 128.121 380.979 129.645 381.252 131.852V131.891H378.958L378.948 131.861C378.723 130.826 377.932 130.084 376.604 130.084C374.944 130.084 373.967 131.393 373.967 133.629V133.648C373.967 135.914 374.954 137.242 376.604 137.242C377.864 137.242 378.635 136.666 378.938 135.543L378.958 135.504L381.252 135.494L381.233 135.572C380.881 137.76 379.309 139.215 376.604 139.215ZM387.176 139.215C383.973 139.215 382.04 137.125 382.04 133.668V133.648C382.04 130.221 384.002 128.121 387.176 128.121C390.36 128.121 392.313 130.211 392.313 133.648V133.668C392.313 137.125 390.37 139.215 387.176 139.215ZM387.176 137.242C388.866 137.242 389.823 135.924 389.823 133.678V133.658C389.823 131.412 388.856 130.084 387.176 130.084C385.487 130.084 384.52 131.412 384.52 133.658V133.678C384.52 135.924 385.487 137.242 387.176 137.242ZM393.754 139V128.326H396.186V129.986H396.352C396.811 128.795 397.885 128.121 399.282 128.121C400.727 128.121 401.782 128.863 402.241 130.045H402.407C402.924 128.883 404.155 128.121 405.639 128.121C407.788 128.121 409.077 129.439 409.077 131.656V139H406.645V132.252C406.645 130.865 406.01 130.162 404.711 130.162C403.442 130.162 402.622 131.109 402.622 132.33V139H400.19V132.076C400.19 130.895 399.458 130.162 398.266 130.162C397.065 130.162 396.186 131.178 396.186 132.506V139H393.754ZM415.528 139.215C412.354 139.215 410.43 137.086 410.43 133.688V133.678C410.43 130.318 412.374 128.121 415.411 128.121C418.448 128.121 420.323 130.25 420.323 133.473V134.273H412.862C412.891 136.188 413.926 137.301 415.577 137.301C416.895 137.301 417.647 136.637 417.881 136.148L417.911 136.08H420.225L420.196 136.168C419.854 137.545 418.428 139.215 415.528 139.215ZM415.44 130.025C414.083 130.025 413.067 130.943 412.881 132.643H417.95C417.784 130.895 416.797 130.025 415.44 130.025ZM425.788 139.215C423.073 139.215 421.432 137.965 421.227 136.158V136.139H423.639L423.649 136.158C423.903 136.9 424.616 137.418 425.827 137.418C427.038 137.418 427.877 136.871 427.877 136.07V136.051C427.877 135.426 427.409 135.016 426.237 134.752L424.508 134.361C422.477 133.912 421.51 132.955 421.51 131.383V131.373C421.51 129.449 423.268 128.121 425.788 128.121C428.385 128.121 429.938 129.41 430.094 131.139V131.158H427.809L427.799 131.129C427.624 130.455 426.92 129.908 425.778 129.908C424.694 129.908 423.913 130.436 423.913 131.236V131.246C423.913 131.871 424.362 132.252 425.514 132.516L427.243 132.896C429.333 133.365 430.319 134.254 430.319 135.807V135.826C430.319 137.857 428.415 139.215 425.788 139.215Z" fill="black"/>
</g>
<path d="M286 19L293 26L286 33" stroke="black" stroke-width="1.5"/>
<path d="M286.09 125L293.09 132L286.09 139" stroke="black" stroke-width="1.5"/>
<path d="M259 86L252 79L259 72" stroke="black" stroke-width="1.5"/>
<path d="M38 125L45 132L38 139" stroke="black" stroke-width="1.5"/>
</g>
<defs>
<filter id="filter0_d_245_565" x="40.4" y="-2.6" width="192.2" height="61.2" filterUnits="userSpaceOnUse" color-interpolation-filters="sRGB">
<feFlood flood-opacity="0" result="BackgroundImageFix"/>
<feColorMatrix in="SourceAlpha" type="matrix" values="0 0 0 0 0 0 0 0 0 0 0 0 0 0 0 0 0 0 127 0" result="hardAlpha"/>
<feOffset dy="1"/>
<feGaussianBlur stdDeviation="2.3"/>
<feComposite in2="hardAlpha" operator="out"/>
<feColorMatrix type="matrix" values="0 0 0 0 0 0 0 0 0 0 0 0 0 0 0 0 0 0 0.08 0"/>
<feBlend mode="normal" in2="BackgroundImageFix" result="effect1_dropShadow_245_565"/>
<feBlend mode="normal" in="SourceGraphic" in2="effect1_dropShadow_245_565" result="shape"/>
</filter>
<filter id="filter1_d_245_565" x="40.4" y="102.4" width="192.2" height="61.2" filterUnits="userSpaceOnUse" color-interpolation-filters="sRGB">
<feFlood flood-opacity="0" result="BackgroundImageFix"/>
<feColorMatrix in="SourceAlpha" type="matrix" values="0 0 0 0 0 0 0 0 0 0 0 0 0 0 0 0 0 0 127 0" result="hardAlpha"/>
<feOffset dy="1"/>
<feGaussianBlur stdDeviation="2.3"/>
<feComposite in2="hardAlpha" operator="out"/>
<feColorMatrix type="matrix" values="0 0 0 0 0 0 0 0 0 0 0 0 0 0 0 0 0 0 0.08 0"/>
<feBlend mode="normal" in2="BackgroundImageFix" result="effect1_dropShadow_245_565"/>
<feBlend mode="normal" in="SourceGraphic" in2="effect1_dropShadow_245_565" result="shape"/>
</filter>
<filter id="filter2_d_245_565" x="288.49" y="-2.6" width="192.2" height="61.2" filterUnits="userSpaceOnUse" color-interpolation-filters="sRGB">
<feFlood flood-opacity="0" result="BackgroundImageFix"/>
<feColorMatrix in="SourceAlpha" type="matrix" values="0 0 0 0 0 0 0 0 0 0 0 0 0 0 0 0 0 0 127 0" result="hardAlpha"/>
<feOffset dy="1"/>
<feGaussianBlur stdDeviation="2.3"/>
<feComposite in2="hardAlpha" operator="out"/>
<feColorMatrix type="matrix" values="0 0 0 0 0 0 0 0 0 0 0 0 0 0 0 0 0 0 0.08 0"/>
<feBlend mode="normal" in2="BackgroundImageFix" result="effect1_dropShadow_245_565"/>
<feBlend mode="normal" in="SourceGraphic" in2="effect1_dropShadow_245_565" result="shape"/>
</filter>
<filter id="filter3_d_245_565" x="288.49" y="102.4" width="192.2" height="61.2" filterUnits="userSpaceOnUse" color-interpolation-filters="sRGB">
<feFlood flood-opacity="0" result="BackgroundImageFix"/>
<feColorMatrix in="SourceAlpha" type="matrix" values="0 0 0 0 0 0 0 0 0 0 0 0 0 0 0 0 0 0 127 0" result="hardAlpha"/>
<feOffset dy="1"/>
<feGaussianBlur stdDeviation="2.3"/>
<feComposite in2="hardAlpha" operator="out"/>
<feColorMatrix type="matrix" values="0 0 0 0 0 0 0 0 0 0 0 0 0 0 0 0 0 0 0.08 0"/>
<feBlend mode="normal" in2="BackgroundImageFix" result="effect1_dropShadow_245_565"/>
<feBlend mode="normal" in="SourceGraphic" in2="effect1_dropShadow_245_565" result="shape"/>
</filter>
<clipPath id="clip0_245_565">
<rect width="517" height="164" fill="white"/>
</clipPath>
</defs>
</svg>
