<?xml version="1.0" encoding="utf-8"?>
<svg xmlns="http://www.w3.org/2000/svg" viewBox="0 0 50 50" fill="#000000"><path d="M 46.59375 0.09375 L 46.28125 0.28125 L 44.1875 2.40625 L 43.90625 3.25 L 44.40625 3.96875 L 45.3125 4 L 45.59375 3.8125 L 47.71875 1.71875 L 48 0.84375 L 47.46875 0.125 Z M 41.65625 5.03125 L 41.375 5.21875 L 39.25 7.34375 L 38.96875 8.1875 L 39.46875 8.9375 L 40.375 8.96875 L 40.65625 8.75 L 42.78125 6.625 L 43.0625 5.78125 L 42.5625 5.0625 Z M 8.6875 9.6875 C 8.460938 9.71875 8.25 9.832031 8.09375 10 C 6.066406 12.082031 3.667969 16.042969 3.125 21.03125 C 2.597656 25.902344 3.960938 31.71875 9.21875 37.28125 L 2.59375 44 L 1 44 C 0.96875 44 0.9375 44 0.90625 44 C 0.875 44 0.84375 44 0.8125 44 C 0.335938 44.089844 -0.0078125 44.511719 0 45 L 0 49 C 0 49.550781 0.449219 50 1 50 L 17 50 C 17.550781 50 18 49.550781 18 49 L 18 45.0625 C 18 45.042969 18 45.019531 18 45 L 18 43.0625 C 20.644531 43.941406 23.265625 44.175781 25.6875 43.96875 C 30.722656 43.535156 34.867188 41.351563 37 39.21875 C 37.195313 39.03125 37.304688 38.769531 37.304688 38.5 C 37.304688 38.230469 37.195313 37.96875 37 37.78125 L 27.09375 27.78125 L 28.375 22.84375 C 28.734375 22.9375 29.109375 23 29.5 23 C 31.972656 23 34 20.972656 34 18.5 C 34 16.027344 31.972656 14 29.5 14 C 27.027344 14 25 16.027344 25 18.5 C 25 18.511719 25 18.519531 25 18.53125 L 19.3125 19.90625 L 9.5 10 C 9.3125 9.800781 9.054688 9.691406 8.78125 9.6875 C 8.75 9.6875 8.71875 9.6875 8.6875 9.6875 Z M 36.71875 9.96875 L 36.40625 10.15625 L 34.28125 12.28125 L 34 13.15625 L 34.53125 13.875 L 35.40625 13.90625 L 35.71875 13.71875 L 37.84375 11.59375 L 38.125 10.75 L 37.59375 10 Z M 8.9375 12.28125 L 34.71875 38.34375 C 32.816406 39.890625 29.539063 41.621094 25.5 41.96875 C 23.042969 42.179688 20.390625 41.921875 17.71875 40.875 C 17.707031 40.863281 17.699219 40.855469 17.6875 40.84375 C 17.667969 40.835938 17.644531 40.820313 17.625 40.8125 C 17.472656 40.6875 17.289063 40.613281 17.09375 40.59375 C 15.210938 39.765625 13.320313 38.5625 11.5 36.8125 C 11.492188 36.792969 11.480469 36.769531 11.46875 36.75 C 11.457031 36.738281 11.449219 36.730469 11.4375 36.71875 C 11.34375 36.574219 11.214844 36.457031 11.0625 36.375 C 11.042969 36.355469 11.019531 36.332031 11 36.3125 C 5.78125 31 4.609375 25.710938 5.09375 21.25 C 5.523438 17.289063 7.363281 14.183594 8.9375 12.28125 Z M 29.5 16 C 30.890625 16 32 17.109375 32 18.5 C 32 19.890625 30.890625 21 29.5 21 C 29.054688 21 28.640625 20.886719 28.28125 20.6875 C 28.207031 20.625 28.121094 20.570313 28.03125 20.53125 C 27.625 20.242188 27.328125 19.824219 27.15625 19.34375 C 27.164063 19.160156 27.121094 18.976563 27.03125 18.8125 C 27.019531 18.707031 27 18.609375 27 18.5 C 27 17.109375 28.109375 16 29.5 16 Z M 25.46875 20.46875 C 25.734375 21.007813 26.113281 21.484375 26.5625 21.875 L 25.46875 26.125 L 20.9375 21.5625 Z M 10.625 38.6875 C 12.359375 40.261719 14.183594 41.410156 16 42.25 L 16 44 L 5.375 44 Z M 2 46 L 16 46 L 16 48 L 2 48 Z" fill="#000000"/></svg>
