<?xml version="1.0" encoding="utf-8"?>
<svg xmlns="http://www.w3.org/2000/svg" viewBox="0 0 50 50" fill="#000000"><path d="M 14 0 C 12.354545 0 11 1.3545455 11 3 L 11 37 C 11 38.645455 12.354545 40 14 40 L 21.505859 40 L 24.5625 48.400391 A 1.0001 1.0001 0 1 0 26.441406 47.716797 L 23.222656 38.873047 A 1.0001 1.0001 0 0 0 23.074219 38.466797 L 21.089844 33.013672 C 20.802746 32.224762 21.197554 31.376892 21.986328 31.089844 C 22.775238 30.802746 23.621155 31.197554 23.908203 31.986328 L 24.347656 33.195312 A 1.0001 1.0001 0 0 0 24.455078 33.488281 A 1.0001 1.0001 0 0 0 24.457031 33.492188 L 26.644531 39.501953 C 26.644988 39.503253 26.644073 39.504559 26.644531 39.505859 L 27.5 41.853516 A 1.0001 1.0001 0 0 0 27.638672 42.119141 A 1.0001 1.0001 0 0 0 27.703125 42.195312 A 1.0001 1.0001 0 0 0 27.773438 42.265625 A 1.0001 1.0001 0 0 0 27.816406 42.300781 A 1.0001 1.0001 0 0 0 27.849609 42.330078 A 1.0001 1.0001 0 0 0 27.851562 42.330078 A 1.0001 1.0001 0 0 0 28.021484 42.431641 A 1.0001 1.0001 0 0 0 28.023438 42.431641 A 1.0001 1.0001 0 0 0 28.113281 42.46875 A 1.0001 1.0001 0 0 0 28.308594 42.515625 A 1.0001 1.0001 0 0 0 28.607422 42.511719 A 1.0001 1.0001 0 0 0 28.705078 42.490234 A 1.0001 1.0001 0 0 0 29.060547 42.3125 A 1.0001 1.0001 0 0 0 29.136719 42.248047 A 1.0001 1.0001 0 0 0 29.363281 41.919922 A 1.0001 1.0001 0 0 0 29.373047 41.896484 A 1.0001 1.0001 0 0 0 29.425781 41.333984 A 1.0001 1.0001 0 0 0 29.378906 41.169922 L 28.525391 38.820312 C 28.238293 38.031404 28.633101 37.185485 29.421875 36.898438 C 30.210785 36.611339 31.056702 37.006148 31.34375 37.794922 L 31.685547 38.732422 C 31.685547 38.732422 31.685547 38.734375 31.685547 38.734375 L 32.199219 40.144531 A 1.0001 1.0001 0 0 0 32.283203 40.324219 A 1.0001 1.0001 0 0 0 32.337891 40.408203 A 1.0001 1.0001 0 0 0 32.402344 40.486328 A 1.0001 1.0001 0 0 0 32.470703 40.556641 A 1.0001 1.0001 0 0 0 32.472656 40.556641 A 1.0001 1.0001 0 0 0 32.632812 40.675781 A 1.0001 1.0001 0 0 0 32.720703 40.722656 A 1.0001 1.0001 0 0 0 32.8125 40.759766 A 1.0001 1.0001 0 0 0 32.814453 40.759766 A 1.0001 1.0001 0 0 0 32.908203 40.787109 A 1.0001 1.0001 0 0 0 33.107422 40.814453 A 1.0001 1.0001 0 0 0 33.207031 40.8125 A 1.0001 1.0001 0 0 0 33.306641 40.802734 A 1.0001 1.0001 0 0 0 33.833984 40.537109 A 1.0001 1.0001 0 0 0 33.904297 40.464844 A 1.0001 1.0001 0 0 0 34.017578 40.300781 A 1.0001 1.0001 0 0 0 34.138672 39.722656 A 1.0001 1.0001 0 0 0 34.125 39.623047 A 1.0001 1.0001 0 0 0 34.078125 39.460938 L 33.566406 38.050781 C 33.392133 37.571898 33.47248 37.07316 33.736328 36.689453 A 1.0001 1.0001 0 0 0 33.820312 36.583984 C 33.985192 36.385796 34.199173 36.222924 34.462891 36.126953 C 35.2518 35.839856 36.097718 36.234664 36.384766 37.023438 L 37.066406 38.898438 C 37.066901 38.899803 37.067863 38.900979 37.068359 38.902344 L 37.240234 39.373047 L 37.582031 40.3125 A 1.0001 1.0001 0 1 0 39.460938 39.628906 L 39.119141 38.689453 L 38.947266 38.21875 C 38.660168 37.42984 39.054976 36.583923 39.84375 36.296875 C 40.63266 36.009778 41.478577 36.404586 41.765625 37.193359 L 45.806641 48.296875 A 1.0009502 1.0009502 0 1 0 47.6875 47.611328 L 43.646484 36.509766 C 43.15377 35.155846 41.890763 34.285714 40.529297 34.212891 C 40.075475 34.188621 39.611429 34.253741 39.160156 34.417969 C 38.587046 34.626533 38.112094 34.982861 37.736328 35.416016 C 36.874784 34.302881 35.398387 33.786005 34 34.191406 L 34 3 C 34 1.3545455 32.645455 0 31 0 L 14 0 z M 14 2 L 17 2 L 17 3 C 17 3.552 17.448 4 18 4 L 27 4 C 27.552 4 28 3.552 28 3 L 28 2 L 31 2 C 31.554545 2 32 2.4454545 32 3 L 32 35.570312 C 31.085468 34.880681 29.883905 34.601909 28.736328 35.019531 C 28.22677 35.204968 27.810697 35.517197 27.455078 35.884766 L 26.742188 33.923828 C 28.588241 33.571929 30 31.943373 30 30 C 30 27.802666 28.197334 26 26 26 L 19 26 C 16.802666 26 15 27.802666 15 30 C 15 32.197334 16.802666 34 19 34 L 19.320312 34 L 20.777344 38 L 14 38 C 13.445455 38 13 37.554545 13 37 L 13 3 C 13 2.4454545 13.445455 2 14 2 z M 22.5 7 C 21.083334 7 19.893559 7.5672556 19.126953 8.4296875 C 18.360347 9.2921194 18 10.402778 18 11.5 C 18 12.597222 18.360347 13.707881 19.126953 14.570312 C 19.893559 15.432745 21.083334 16 22.5 16 C 23.916666 16 25.106441 15.432744 25.873047 14.570312 C 26.639653 13.707882 27 12.597222 27 11.5 C 27 10.402778 26.639653 9.2921194 25.873047 8.4296875 C 25.106441 7.5672556 23.916666 7 22.5 7 z M 22.5 9 C 23.416666 9 23.976893 9.3077444 24.376953 9.7578125 C 24.777013 10.207881 25 10.847222 25 11.5 C 25 12.152778 24.777013 12.792119 24.376953 13.242188 C 23.976893 13.692255 23.416666 14 22.5 14 C 21.583334 14 21.023107 13.692256 20.623047 13.242188 C 20.222987 12.792118 20 12.152778 20 11.5 C 20 10.847222 20.222987 10.207881 20.623047 9.7578125 C 21.023107 9.3077444 21.583334 9 22.5 9 z M 21 17 C 18.250484 17 16 19.250484 16 22 L 16 23 A 1.0001 1.0001 0 0 0 17 24 L 28 24 A 1.0001 1.0001 0 0 0 29 23 L 29 22 C 29 19.250484 26.749516 17 24 17 L 21 17 z M 21 19 L 24 19 C 25.668484 19 27 20.331516 27 22 L 18 22 C 18 20.331516 19.331516 19 21 19 z M 19 28 L 26 28 C 27.116666 28 28 28.883334 28 30 C 28 31.103246 27.136675 31.97521 26.039062 31.996094 L 25.787109 31.302734 C 25.294395 29.948815 24.033341 29.080637 22.671875 29.007812 C 22.218053 28.983542 21.754007 29.046711 21.302734 29.210938 C 20.058964 29.663566 19.23874 30.768119 19.054688 32 L 19 32 C 17.883334 32 17 31.116666 17 30 C 17 28.883334 17.883334 28 19 28 z" fill="#000000"/></svg>
